<svg width="20" height="17" viewBox="0 0 20 17" fill="none" xmlns="http://www.w3.org/2000/svg">
<path d="M1.68853 9.68928H9.9062C10.1345 9.68928 10.3534 9.5986 10.5148 9.4372C10.6762 9.27579 10.7669 9.05687 10.7669 8.82861C10.7669 8.60035 10.6762 8.38143 10.5148 8.22003C10.3534 8.05862 10.1345 7.96794 9.9062 7.96794H1.68853C1.46027 7.96794 1.24136 8.05862 1.07995 8.22003C0.918543 8.38143 0.827866 8.60035 0.827866 8.82861C0.827866 9.05687 0.918543 9.27579 1.07995 9.4372C1.24136 9.5986 1.46027 9.68928 1.68853 9.68928Z" fill="black" stroke="black" stroke-width="0.344267"/>
<path d="M1.68853 2.5492H18.4716C18.6998 2.5492 18.9187 2.45853 19.0802 2.29712C19.2416 2.13571 19.3322 1.9168 19.3322 1.68853C19.3322 1.46027 19.2416 1.24136 19.0802 1.07995C18.9187 0.918544 18.6998 0.827866 18.4716 0.827866H1.68853C1.46027 0.827866 1.24136 0.918544 1.07995 1.07995C0.918543 1.24136 0.827866 1.46027 0.827866 1.68853C0.827866 1.9168 0.918543 2.13571 1.07995 2.29712C1.24136 2.45853 1.46027 2.5492 1.68853 2.5492Z" fill="black" stroke="black" stroke-width="0.344267"/>
<path d="M1.68853 16.826H18.4716C18.6998 16.826 18.9187 16.7353 19.0802 16.5739C19.2416 16.4125 19.3322 16.1936 19.3322 15.9653C19.3322 15.737 19.2416 15.5181 19.0802 15.3567C18.9187 15.1953 18.6998 15.1046 18.4716 15.1046H1.68853C1.46027 15.1046 1.24136 15.1953 1.07995 15.3567C0.918543 15.5181 0.827866 15.737 0.827866 15.9653C0.827866 16.1936 0.918543 16.4125 1.07995 16.5739C1.24136 16.7353 1.46027 16.826 1.68853 16.826Z" fill="black" stroke="black" stroke-width="0.344267"/>
</svg>
