<svg width="14" height="13" viewBox="0 0 14 13" fill="none" xmlns="http://www.w3.org/2000/svg">
<path d="M6.76054 0.0434694C3.19492 0.0434694 0.304016 2.69323 0.304016 5.962C0.304016 7.24459 0.753713 8.42839 1.51106 9.39832L0.345015 12.2124C0.231542 12.4873 0.361802 12.8014 0.636204 12.9154C0.773889 12.9722 0.920937 12.9685 1.04813 12.9154L4.48139 11.4935C5.19047 11.7395 5.9567 11.8804 6.76054 11.8804C10.3273 11.8804 13.2171 9.22949 13.2171 5.96184C13.2171 2.69323 10.3273 0.0434694 6.76054 0.0434694ZM6.76054 10.8042C6.10908 10.8042 5.46052 10.6938 4.83327 10.4769L4.44765 10.3429L1.83615 11.4242L2.74523 9.23062L2.35945 8.73621C1.71832 7.91542 1.38016 6.95614 1.38016 5.962C1.38016 3.29175 3.79393 1.11961 6.76054 1.11961C9.72715 1.11961 12.1409 3.29175 12.1409 5.962C12.1409 8.63161 9.72715 10.8042 6.76054 10.8042Z" fill="#EA4424"/>
<path d="M6.76056 6.76907C7.20629 6.76907 7.56762 6.40774 7.56762 5.96201C7.56762 5.51628 7.20629 5.15494 6.76056 5.15494C6.31483 5.15494 5.95349 5.51628 5.95349 5.96201C5.95349 6.40774 6.31483 6.76907 6.76056 6.76907Z" fill="#EA4424"/>
<path d="M4.06994 6.76907C4.51567 6.76907 4.87701 6.40774 4.87701 5.96201C4.87701 5.51628 4.51567 5.15494 4.06994 5.15494C3.62421 5.15494 3.26288 5.51628 3.26288 5.96201C3.26288 6.40774 3.62421 6.76907 4.06994 6.76907Z" fill="#EA4424"/>
<path d="M9.45111 6.76907C9.89684 6.76907 10.2582 6.40774 10.2582 5.96201C10.2582 5.51628 9.89684 5.15494 9.45111 5.15494C9.00538 5.15494 8.64404 5.51628 8.64404 5.96201C8.64404 6.40774 9.00538 6.76907 9.45111 6.76907Z" fill="#EA4424"/>
</svg>
