<svg width="16" height="17" viewBox="0 0 16 17" fill="none" xmlns="http://www.w3.org/2000/svg">
<path d="M13.5945 6.33515C13.1421 6.33382 12.6968 6.44353 12.3007 6.6539V0.53125C12.3007 0.390354 12.2426 0.255229 12.1391 0.1556C12.0356 0.0559715 11.8953 5.75681e-07 11.749 5.75681e-07H11.5862C11.5022 -0.00011853 11.4192 0.0182458 11.3437 0.0536922C11.2682 0.0891386 11.202 0.140731 11.1503 0.204532L10.3503 1.19531L9.65517 0.326719C9.57248 0.227061 9.46755 0.146603 9.34816 0.0913096C9.22878 0.036016 9.098 0.00730479 8.96552 0.00730479C8.83304 0.00730479 8.70226 0.036016 8.58287 0.0913096C8.46349 0.146603 8.35856 0.227061 8.27586 0.326719L7.5531 1.19531L6.84966 0.326719C6.76696 0.227061 6.66203 0.146603 6.54264 0.0913096C6.42326 0.036016 6.29248 0.00730479 6.16 0.00730479C6.02752 0.00730479 5.89674 0.036016 5.77736 0.0913096C5.65797 0.146603 5.55304 0.227061 5.47035 0.326719L4.75586 1.19531L4.05517 0.326719C3.97248 0.227061 3.86755 0.146603 3.74816 0.0913096C3.62878 0.036016 3.498 0.00730479 3.36552 0.00730479C3.23304 0.00730479 3.10226 0.036016 2.98287 0.0913096C2.86349 0.146603 2.75856 0.227061 2.67586 0.326719L1.96138 1.19531L1.15862 0.204532C1.10694 0.140731 1.04081 0.0891386 0.965274 0.0536922C0.889737 0.0182458 0.806789 -0.00011853 0.722759 5.75681e-07H0.551724C0.405398 5.75681e-07 0.265065 0.0559715 0.161596 0.1556C0.058128 0.255229 0 0.390354 0 0.53125V14.9866C0.000361618 15.2515 0.0549692 15.5139 0.160699 15.7585C0.266429 16.0031 0.421208 16.2253 0.616183 16.4123C0.811158 16.5993 1.04251 16.7475 1.29699 16.8483C1.55148 16.9491 1.82412 17.0007 2.09931 17H11.7545C11.9008 17 12.0411 16.944 12.1446 16.8444C12.2481 16.7448 12.3062 16.6096 12.3062 16.4687C12.3062 15.6002 13.1338 15.3664 13.6 15.3664C14.0662 15.3664 14.8966 15.6002 14.8966 16.4687C14.8966 16.6096 14.9547 16.7448 15.0581 16.8444C15.1616 16.944 15.3019 17 15.4483 17C15.5946 17 15.7349 16.944 15.8384 16.8444C15.9419 16.7448 16 16.6096 16 16.4687V8.5C16 7.0789 14.7834 6.33515 13.5945 6.33515ZM11.1972 15.9375H2.09379C1.96377 15.9382 1.83489 15.9141 1.71458 15.8666C1.59428 15.8191 1.48494 15.7491 1.39287 15.6607C1.30079 15.5723 1.22782 15.4672 1.17814 15.3515C1.12847 15.2358 1.10308 15.1118 1.10345 14.9866V1.87797L1.52552 2.39062C1.57913 2.45115 1.64573 2.49975 1.72075 2.53308C1.79576 2.56641 1.87739 2.58367 1.96 2.58367C2.04261 2.58367 2.12424 2.56641 2.19925 2.53308C2.27427 2.49975 2.34087 2.45115 2.39448 2.39062L3.36 1.20063L4.32276 2.39062C4.37437 2.45412 4.44031 2.50547 4.51559 2.54079C4.59087 2.5761 4.6735 2.59446 4.75724 2.59446C4.84098 2.59446 4.92362 2.5761 4.9989 2.54079C5.07417 2.50547 5.14012 2.45412 5.19172 2.39062L6.15448 1.20063L7.12 2.39062C7.17358 2.45299 7.2408 2.5032 7.31686 2.53766C7.39292 2.57213 7.47594 2.59 7.56 2.59C7.64406 2.59 7.72708 2.57213 7.80314 2.53766C7.8792 2.5032 7.94642 2.45299 8 2.39062L8.96276 1.20063L9.91448 2.39062C9.96835 2.45121 10.0352 2.49984 10.1104 2.53318C10.1857 2.56653 10.2675 2.58379 10.3503 2.58379C10.4332 2.58379 10.515 2.56653 10.5903 2.53318C10.6655 2.49984 10.7323 2.45121 10.7862 2.39062L11.1972 1.88328V15.9375ZM14.8855 14.6094C14.4893 14.4004 14.0449 14.2908 13.5931 14.2908C13.1413 14.2908 12.6969 14.4004 12.3007 14.6094V8.5C12.3007 7.6314 13.1283 7.39765 13.5945 7.39765C14.0607 7.39765 14.8966 7.6314 14.8966 8.5L14.8855 14.6094ZM9.84828 5.97656C9.84828 6.11746 9.79015 6.25258 9.68668 6.35221C9.58321 6.45184 9.44288 6.50781 9.29655 6.50781H3.01241C2.86609 6.50781 2.72575 6.45184 2.62229 6.35221C2.51882 6.25258 2.46069 6.11746 2.46069 5.97656C2.46069 5.83566 2.51882 5.70054 2.62229 5.60091C2.72575 5.50128 2.86609 5.44531 3.01241 5.44531H9.29655C9.44288 5.44531 9.58321 5.50128 9.68668 5.60091C9.79015 5.70054 9.84828 5.83566 9.84828 5.97656ZM9.84828 8.96484C9.84828 9.10574 9.79015 9.24086 9.68668 9.34049C9.58321 9.44012 9.44288 9.49609 9.29655 9.49609H3.01241C2.86609 9.49609 2.72575 9.44012 2.62229 9.34049C2.51882 9.24086 2.46069 9.10574 2.46069 8.96484C2.46069 8.82394 2.51882 8.68882 2.62229 8.58919C2.72575 8.48956 2.86609 8.43359 3.01241 8.43359H9.29655C9.44288 8.43359 9.58321 8.48956 9.68668 8.58919C9.79015 8.68882 9.84828 8.82394 9.84828 8.96484ZM9.84828 11.9531C9.84828 12.094 9.79015 12.2291 9.68668 12.3288C9.58321 12.4284 9.44288 12.4844 9.29655 12.4844H3.01241C2.86609 12.4844 2.72575 12.4284 2.62229 12.3288C2.51882 12.2291 2.46069 12.094 2.46069 11.9531C2.46069 11.8122 2.51882 11.6771 2.62229 11.5775C2.72575 11.4778 2.86609 11.4219 3.01241 11.4219H9.29655C9.44288 11.4219 9.58321 11.4778 9.68668 11.5775C9.79015 11.6771 9.84828 11.8122 9.84828 11.9531Z" fill="#333333"/>
</svg>
