<svg width="14" height="13" viewBox="0 0 14 13" fill="none" xmlns="http://www.w3.org/2000/svg">
<path d="M12.772 11.3134C11.8834 12.0831 11.1126 12.8528 10.0332 12.96C7.98745 12.9323 5.88876 11.2142 3.94356 9.2634C2.9822 8.2993 2.01782 7.25147 1.306 6.20849C0.594215 5.16552 0.0889287 4.11111 0.250622 3.05291C0.250588 3.0489 0.250593 3.04487 0.250635 3.04086C0.418181 2.06239 1.10116 1.24298 1.90765 0.393801C2.47685 -0.0890249 3.33121 -0.0667845 3.80249 0.389773L5.43095 2.0229C5.88401 2.5758 5.91852 3.31496 5.62149 3.8893C5.34329 4.27309 5.05439 4.66841 4.77209 5.05629C4.82042 5.23153 4.94594 5.45474 5.05436 5.61042C5.35585 6.03292 5.84812 6.53299 6.25605 6.9421C6.67513 7.36237 7.14721 7.86111 7.54807 8.15949C7.7145 8.31347 7.97918 8.40624 8.14331 8.425C8.52897 8.14535 8.92785 7.84759 9.31117 7.5774C9.96349 7.26506 10.7112 7.3392 11.1517 7.76595L12.774 9.38704C13.2961 10.0071 13.1887 10.7402 12.772 11.3134ZM11.955 10.2049L10.3386 8.58384C10.1838 8.50568 10.0356 8.54724 9.86338 8.59539L8.82794 9.35884C8.11237 9.76421 7.42429 9.5063 6.85519 9.08587C6.3197 8.68727 5.83317 8.15732 5.43696 7.75999C5.02774 7.34958 4.4986 6.8235 4.10914 6.27768C3.70529 5.71033 3.44105 4.91933 3.84643 4.37508C4.09408 4.0178 4.37971 3.63651 4.60553 3.32841C4.68064 3.14687 4.67071 3.01844 4.61202 2.84079L2.98357 1.20767C2.90675 1.16103 2.77253 1.19236 2.74295 1.19537C1.98541 1.99304 1.486 2.70192 1.3934 3.22871L1.39339 3.23473C1.3131 3.77897 1.61995 4.62571 2.25717 5.55935C2.89644 6.49607 3.82443 7.50476 4.76255 8.44556C6.61513 10.3035 8.66395 11.748 9.99841 11.7982C10.518 11.6872 11.2088 11.2038 11.9788 10.4758C12.023 10.3779 11.9902 10.3061 11.955 10.2049Z" fill="#EA4424"/>
</svg>
